# xmcd CD database file
#
# Track frame offsets:
#	150
#	12479
#	25043
#	39020
#	56512
#	69055
#	87150
#	98957
#	112761
#	124880
#	138840
#	157208
#
# Disc length: 2285 seconds
#
# Revision: 0
# Processed by: cddbd v1.5.2PL0 Copyright (c) Steve Scherf et al.
# Submitted via: CDex 1.70beta2
#
DISCID=8c08eb0c
DTITLE=Justin Trevino - Take One As Needed For Pain
DYEAR=2008
DGENRE=Country
TTITLE0=When She Does Me Right
TTITLE1=I Just Lost My Favorite Girl
TTITLE2=We Don't
TTITLE3=Justin Trevino and Heather Myles - This Time We're Going To Make It
TTITLE4=My First Night WIthout You
TTITLE5=Take One As Needed For Pain
TTITLE6=Play Now Pay Later
TTITLE7=She'll Keep Bringing All Her Love To Me
TTITLE8=Justin Trevino and Bill Anderson - I'll Go Down Swingin'
TTITLE9=Neon Sun
TTITLE10=I Did It All On My Own
TTITLE11=Where Do You Take A Broken Heart?
EXTD=YEAR: 2008
EXTT0=
EXTT1=
EXTT2=
EXTT3=
EXTT4=
EXTT5=
EXTT6=
EXTT7=
EXTT8=
EXTT9=
EXTT10=
EXTT11=
PLAYORDER=
